<svg width="800px" height="800px" version="1.1" viewBox="0 0 512 512" xml:space="preserve" xmlns="http://www.w3.org/2000/svg">
  <path d="m358.86 261.91c-3.605 9.007-7.793 20.107-12.178 32.966-16.997 49.815-36.943 126.09-36.943 209.82h-107.5c0-83.723-19.946-160-36.931-209.82-4.386-12.872-8.573-23.972-12.178-32.979 10.989-1.437 21.011-5.909 29.213-12.55 11.088 14.42 26.314 25.484 43.893 31.443 1.747 11.509 3.481 24.046 5.092 37.488 0.458 3.704 0.892 7.483 1.313 11.323 1.338 11.906 11.36 20.937 23.34 20.937h0.013c11.98 0 22.015-9.031 23.34-20.937 0.421-3.841 0.855-7.619 1.301-11.323 1.611-13.442 3.345-25.979 5.117-37.488 17.567-5.959 32.793-17.022 43.881-31.443 8.213 6.642 18.236 11.126 29.224 12.563z" fill="#71A517"/>
  <g fill="#648E13">
    <path d="m196.88 300.31c8.621 7.128 18.546 12.737 29.367 16.405 1.672 0.57 3.37 1.09 5.092 1.561-1.611-13.442-3.345-25.979-5.092-37.488-12.966-4.396-24.644-11.573-34.333-20.82-1.698-1.62-3.335-3.304-4.908-5.047-0.028-0.031-0.057-0.061-0.085-0.093-0.71-0.788-1.401-1.592-2.084-2.405-0.089-0.107-0.182-0.208-0.271-0.315-0.754-0.907-1.493-1.827-2.213-2.763-8.201 6.64-18.224 11.113-29.213 12.55 3.605 9.007 7.792 20.107 12.178 32.979 16.985 49.815 36.931 126.09 36.931 209.82h29.733c1e-3 -80.739-18.547-154.54-35.102-204.38z"/>
    <path d="m358.86 261.91c-3.605 9.007-7.793 20.107-12.178 32.966-6.244-2.242-11.992-5.513-17.047-9.601-11.088 14.42-26.314 25.484-43.881 31.443-1.685 0.57-3.395 1.09-5.117 1.561 1.611-13.442 3.345-25.979 5.117-37.488 17.567-5.959 32.793-17.022 43.881-31.443 8.214 6.641 18.237 11.125 29.225 12.562z"/>
  </g>
  <path d="m358.86 268.1c-10.989-1.437-21.011-5.922-29.225-12.562-11.088 14.42-26.314 25.484-43.881 31.443-9.341 3.159-19.351 4.869-29.758 4.869s-20.417-1.71-29.758-4.869c-17.58-5.959-32.805-17.022-43.893-31.443-8.201 6.64-18.224 11.113-29.213 12.55-2.515 0.335-5.092 0.508-7.693 0.508-0.31 0-0.607-0.025-0.917-0.025-4.894 27.503-28.903 48.39-57.806 48.39-32.434 0-58.735-26.289-58.735-58.735 0-10.345 2.688-20.07 7.396-28.519-21.232-13.206-35.38-36.745-35.38-63.603 0-41.341 33.511-74.853 74.852-74.853 3.531 0 7.012 0.273 10.419 0.743 5.835-35.531 36.671-62.65 73.849-62.65 15.337 0 29.597 4.633 41.477 12.55 9.676-20.441 30.476-34.589 54.597-34.589 24.443 0 45.479 14.544 54.981 35.432 12.116-8.424 26.822-13.392 42.704-13.392 37.178 0 68.014 27.119 73.837 62.65 3.407-0.471 6.888-0.743 10.431-0.743 41.341 0 74.853 33.511 74.853 74.853 0 26.859-14.148 50.397-35.395 63.604 4.708 8.449 7.396 18.174 7.396 28.519 0 32.446-26.289 58.735-58.722 58.735-28.915 0-52.924-20.887-57.806-48.39-0.31 0-0.619 0.025-0.929 0.025-2.601-3e-3 -5.166-0.176-7.681-0.498z" fill="#9AD14B"/>
  <path d="m117.18 258.23c0-10.345 2.688-20.07 7.396-28.519-21.234-13.206-35.382-36.745-35.382-63.604 0-41.341 33.511-74.853 74.852-74.853 3.531 0 7.012 0.273 10.419 0.743 67.902-101.4 121.3-60.567 125.32-64.98-11.038-12.105-26.926-19.709-44.597-19.709-24.121 0-44.921 14.148-54.597 34.589-11.881-7.916-26.14-12.55-41.477-12.55-37.178 0-68.014 27.119-73.849 62.65-3.407-0.471-6.888-0.743-10.419-0.743-41.342 1e-3 -74.853 33.513-74.853 74.854 0 26.859 14.148 50.397 35.382 63.604-4.708 8.449-7.396 18.174-7.396 28.519 0 32.446 26.301 58.735 58.735 58.735 17.85 0 33.826-7.973 44.593-20.544-8.801-10.27-14.129-23.604-14.129-38.192z" fill="#90BC42"/>
</svg>
